<?xml version="1.0" encoding="utf-8"?>
<!-- Generator: Adobe Illustrator 28.0.0, SVG Export Plug-In . SVG Version: 6.00 Build 0)  -->
<svg version="1.1" id="Layer_1" xmlns="http://www.w3.org/2000/svg" xmlns:xlink="http://www.w3.org/1999/xlink" x="0px" y="0px"
	 width="56.4px" height="60px" viewBox="0 0 56.4 60" style="enable-background:new 0 0 56.4 60;" xml:space="preserve">
<style type="text/css">
	.st0{display:none;fill:none;stroke:#DEE4F9;stroke-width:0.6;stroke-miterlimit:10;}
	.st1{display:none;fill:#EAF774;}
	.st2{fill:#EAF774;}
</style>
<circle class="st0" cx="30" cy="30" r="20"/>
<path class="st1" d="M35.9,43.6c-0.1-0.5-0.2-1.5-0.2-3v-2.2c0-2.3-0.3-4-0.9-5.1s-1.7-2-3.2-2.6c1.8-0.6,3.1-1.7,3.9-3.2
	s1.2-3,1.2-4.5c0-1.3-0.2-2.4-0.6-3.4c-0.4-1-1-1.9-1.7-2.7c-0.9-1-1.9-1.8-3.1-2.3s-3-0.8-5.3-0.8H4.7c-2.6,0-4.7,2.1-4.7,4.7v27.8
	h6.6v-9.9v-2.8v-5.4v-1.7v-5.1c0-1.1,0.9-2,2-2h15.9c1.5,0,2.6,0.2,3.3,0.6c1.3,0.7,2,2,2,4c0,1.8-0.7,3-2,3.7
	c-0.8,0.4-1.9,0.5-3.4,0.5h-15v5.4c0,0,14.3,0,14.3,0c2,0,3.4,0.3,4.1,1c0.7,0.7,1.1,2.1,1.1,4.1l0,3c0,1,0.1,1.9,0.3,2.8l0.3,1.7
	h7.6v-0.8C36.5,45,36.1,44.4,35.9,43.6z"/>
<path class="st1" d="M35.9,43.6c-0.1-0.5-0.2-1.5-0.2-3v-2.2c0-2.3-0.3-4-0.9-5.1s-1.7-2-3.2-2.6c1.8-0.6,3.1-1.7,3.9-3.2
	s1.2-3,1.2-4.5c0-1.3-0.2-2.4-0.6-3.4c-0.4-1-1-1.9-1.7-2.7c-0.9-1-1.9-1.8-3.1-2.3s-3-0.8-5.3-0.8H4.7c-2.6,0-4.7,2.1-4.7,4.7v27.8
	h6.6v-9.9v-2.8v-5.4v-1.7v-5.1c0-1.1,0.9-2,2-2h15.9c1.5,0,2.6,0.2,3.3,0.6c1.3,0.7,2,2,2,4c0,1.8-0.7,3-2,3.7
	c-0.8,0.4-1.9,0.5-3.4,0.5h-15v5.4c0,0,14.3,0,14.3,0c2,0,3.4,0.3,4.1,1c0.7,0.7,1.1,2.1,1.1,4.1l0,3c0,1,0.1,1.9,0.3,2.8l0.3,1.7
	h7.6v-0.8C36.5,45,36.1,44.4,35.9,43.6z"/>
<g>
	<path class="st2" d="M1.8,29.1h13c1,0,1.8-0.8,1.8-1.8v-13c0-1-0.8-1.8-1.8-1.8h-13c-1,0-1.8,0.8-1.8,1.8v13
		C0,28.3,0.8,29.1,1.8,29.1z"/>
	<path class="st2" d="M1.8,47.4h13c1,0,1.8-0.8,1.8-1.8v-13c0-1-0.8-1.8-1.8-1.8h-13c-1,0-1.8,0.8-1.8,1.8v13
		C0,46.6,0.8,47.4,1.8,47.4z"/>
	<path class="st2" d="M20,29.1h2.7c6.8,0,12.3-5.5,12.3-12.3v-2.7c0-0.8-0.7-1.5-1.5-1.5H20c-0.8,0-1.5,0.7-1.5,1.5v13.6
		C18.5,28.4,19.2,29.1,20,29.1z"/>
	<path class="st2" d="M30.8,47.4h2.7c0.8,0,1.5-0.7,1.5-1.5V32.4c0-0.8-0.7-1.5-1.5-1.5H20c-0.8,0-1.5,0.7-1.5,1.5v2.7
		C18.5,41.9,24,47.4,30.8,47.4z"/>
</g>
</svg>
