<?xml version="1.0" encoding="utf-8"?>
<!-- Generator: Adobe Illustrator 28.0.0, SVG Export Plug-In . SVG Version: 6.00 Build 0)  -->
<svg version="1.1" id="Layer_1" xmlns="http://www.w3.org/2000/svg" xmlns:xlink="http://www.w3.org/1999/xlink" x="0px" y="0px"
	 width="60px" height="60px" viewBox="0 0 60 60" style="enable-background:new 0 0 60 60;" xml:space="preserve">
<style type="text/css">
	.st0{fill:none;stroke:#DEE4F9;stroke-width:0.2;stroke-miterlimit:10;}
	.st1{fill:none;stroke:#EAF774;stroke-width:0.8;stroke-miterlimit:10;}
</style>
<circle class="st0" cx="30" cy="30" r="20"/>
<g>
	<path class="st1" d="M33.4,29.1h5.1c1.2,0,2.2-1,2.2-2.2v-5.1c0-1.2-1-2.2-2.2-2.2h-5.1c-1.2,0-2.2,1-2.2,2.2v5.1
		C31.2,28.1,32.2,29.1,33.4,29.1z"/>
	<path class="st1" d="M21.6,29.1h5.1c1.2,0,2.2-1,2.2-2.2v-5.1c0-1.2-1-2.2-2.2-2.2h-5.1c-1.2,0-2.2,1-2.2,2.2v5.1
		C19.4,28.1,20.4,29.1,21.6,29.1z"/>
	<path class="st1" d="M33.4,40.4h5.1c1.2,0,2.2-1,2.2-2.2v-5.1c0-1.2-1-2.2-2.2-2.2h-5.1c-1.2,0-2.2,1-2.2,2.2v5.1
		C31.2,39.4,32.2,40.4,33.4,40.4z"/>
	<path class="st1" d="M21.6,40.4h5.1c1.2,0,2.2-1,2.2-2.2v-5.1c0-1.2-1-2.2-2.2-2.2h-5.1c-1.2,0-2.2,1-2.2,2.2v5.1
		C19.4,39.4,20.4,40.4,21.6,40.4z"/>
</g>
</svg>
